<svg width="51" height="58" viewBox="0 0 51 58" fill="none" xmlns="http://www.w3.org/2000/svg">
<path d="M21.1335 20.2998C21.1335 18.925 22.1797 18.3622 23.4567 19.0496L30.6417 22.9147C31.9186 23.6021 31.9186 24.7277 30.6417 25.4151L23.4567 29.2802C22.1775 29.9676 21.1335 29.4048 21.1335 28.03V20.2998Z" fill="#CFD3D2"/>
<path d="M28.1482 46.0973C28.1482 46.7486 27.6326 47.3596 26.7763 47.4098C26.7655 47.4098 25.3354 47.4239 23.7069 47.4118C22.9454 47.4118 22.3048 46.829 22.3048 46.0973V37.8224C24.2504 38.1762 26.2069 38.1762 28.1482 37.8224V46.0973Z" fill="#FBB040"/>
<path d="M14.1297 33.5754L8.90757 40.2725C8.49989 40.7951 8.56892 41.5086 9.03483 41.9569C9.42957 42.2644 9.0564 41.9971 11.6427 43.7477C12.4515 44.2341 13.2367 43.9889 13.6379 43.4744L18.86 36.7773C17.0676 36.0014 15.4649 34.908 14.1319 33.5754H14.1297Z" fill="#FBB040"/>
<path d="M10.1781 25.6683L1.74411 28.223C1.00641 28.4461 0.598734 29.1877 0.836006 29.8711C1.3731 31.4127 1.16172 30.8057 1.77431 32.5644C2.01374 33.2478 2.81183 33.6237 3.54738 33.4026L11.9899 30.8459C11.0473 29.2782 10.4175 27.5295 10.1759 25.6683H10.1781Z" fill="#FBB040"/>
<path d="M9.21386 5.84835C8.59048 6.27044 8.45243 7.09451 8.90756 7.6794L14.1146 14.3584C17.6176 10.843 22.8656 9.13058 28.1482 10.0953C42.4255 12.7042 44.9664 30.9866 31.5951 36.7773L36.8172 43.4744C37.2314 44.007 37.9993 44.1618 38.6054 43.8683C46.0169 39.4967 50.4453 32.0338 50.4453 23.9599C50.4453 4.6243 26.2629 -6.98711 9.21601 5.85036L9.21386 5.84835ZM38.6119 38.7792L37.9108 37.8807C42.8828 34.0056 45.4474 28.0943 44.6278 21.7892C43.5859 13.7796 37.4514 7.60504 29.0002 6.05939C27.7534 5.83227 26.4808 5.71569 25.2189 5.71569C21.5779 5.71569 18.021 6.67845 14.958 8.44117L14.2548 7.53871C17.6111 5.57902 21.3385 4.55194 25.1736 4.55194C35.2038 4.55194 46.032 11.9706 46.032 23.9579C46.032 29.7244 43.3034 35.0929 38.6119 38.7771V38.7792Z" fill="#14ACE3"/>
<path d="M15.04 48.3505L25.2189 57.1761L35.4152 48.3344C28.7888 49.8619 21.7979 49.8901 15.04 48.3485V48.3505Z" fill="#CFD3D2"/>
</svg>
