<svg width="82" height="82" viewBox="0 0 82 82" fill="none" xmlns="http://www.w3.org/2000/svg">
<path d="M72.2113 3.84375H9.78875C6.50875 3.85016 3.85016 6.50875 3.84375 9.78875V57.5537C3.85016 60.8337 6.50875 63.4923 9.78875 63.4988H10.1731C10.881 63.4988 11.4544 62.9254 11.4544 62.2175C11.4544 61.5096 10.881 60.9363 10.1731 60.9363H9.78875C7.92133 60.9363 6.40625 59.4212 6.40625 57.5537V19.1163H75.5938V57.5537C75.5938 59.4212 74.0787 60.9363 72.2113 60.9363H44.0238C43.3159 60.9363 42.7425 61.5096 42.7425 62.2175C42.7425 62.9254 43.3159 63.4988 44.0238 63.4988H72.2113C75.4945 63.4988 78.1562 60.837 78.1562 57.5537V9.78875C78.1562 6.50555 75.4945 3.84375 72.2113 3.84375ZM6.40625 16.5922V9.78875C6.40625 7.92133 7.92133 6.40625 9.78875 6.40625H72.2113C74.0787 6.40625 75.5938 7.92133 75.5938 9.78875V16.5922H6.40625Z" fill="#14183E"/>
<path d="M14.6319 10.25H12.0694C11.3615 10.25 10.7881 10.8234 10.7881 11.5312C10.7881 12.2391 11.3615 12.8125 12.0694 12.8125H14.6319C15.3398 12.8125 15.9131 12.2391 15.9131 11.5312C15.9131 10.8234 15.3398 10.25 14.6319 10.25Z" fill="#14183E"/>
<path d="M23.3828 10.25H20.8203C20.1124 10.25 19.5391 10.8234 19.5391 11.5312C19.5391 12.2391 20.1124 12.8125 20.8203 12.8125H23.3828C24.0907 12.8125 24.6641 12.2391 24.6641 11.5312C24.6641 10.8234 24.0907 10.25 23.3828 10.25Z" fill="#14183E"/>
<path d="M32.1337 10.25H29.5712C28.8633 10.25 28.29 10.8234 28.29 11.5312C28.29 12.2391 28.8633 12.8125 29.5712 12.8125H32.1337C32.8416 12.8125 33.415 12.2391 33.415 11.5312C33.415 10.8234 32.8416 10.25 32.1337 10.25Z" fill="#14183E"/>
<path d="M48.3592 53.1638C48.3592 53.1638 48.356 53.1606 48.3544 53.159L31.6981 36.5028C30.5082 35.3112 28.5783 35.308 27.3851 36.498C27.3835 36.4996 27.3819 36.5012 27.3803 36.5028L25.9197 37.9634C24.7506 39.1502 24.7506 41.056 25.9197 42.2428L13.6453 59.514C13.2738 60.0441 13.3266 60.7616 13.7735 61.2309L14.491 61.9484L10.4806 65.9587C9.97935 66.492 9.97935 67.3216 10.4806 67.855L17.0022 74.3125C17.2537 74.5655 17.5932 74.7113 17.9503 74.7225C18.3059 74.7161 18.6438 74.5735 18.8985 74.3253L19.9747 73.249V73.3131C21.8437 75.5889 24.6401 76.8974 27.5853 76.875C29.536 76.8942 31.4467 76.3128 33.0563 75.2093C36.8792 72.5812 38.295 67.6051 36.426 63.3578L42.6144 58.9375C43.8011 60.1066 45.707 60.1066 46.8938 58.9375L48.3544 57.4768C49.546 56.2869 49.5492 54.357 48.3592 53.1638ZM17.9375 71.75L13.1585 66.9068L16.3103 63.755L18.7063 66.1509L21.1022 68.5468L17.9375 71.75ZM31.5828 73.1209C28.5142 75.1725 24.3934 74.5815 22.0247 71.75C21.9478 71.6603 21.8966 71.5578 21.8325 71.4553L22.9216 70.3662L23.6391 71.0837C23.8873 71.3384 24.2317 71.4777 24.5872 71.4681C24.8467 71.4713 25.1013 71.396 25.3175 71.2503L34.2863 64.844C35.3721 67.8966 34.2606 71.2983 31.5828 73.1209ZM24.7153 68.534L16.3231 60.1418L27.7263 44.0237L40.7694 57.1565L24.7153 68.534ZM46.5382 55.603L46.535 55.6062L45.0744 57.1437C44.8854 57.3343 44.5763 57.3359 44.3857 57.1469L44.3825 57.1437L27.7263 40.4875C27.5309 40.3017 27.5245 39.9942 27.7103 39.7988L27.7263 39.7828V39.7187L29.1869 38.2581C29.3759 38.0675 29.685 38.0659 29.8756 38.2549L29.8788 38.2581L46.535 54.9143C46.7256 55.1033 46.7272 55.4124 46.5382 55.603Z" fill="#14183E"/>
<path d="M21.1022 68.5469L17.9375 71.75L13.1584 66.9069L16.3103 63.755L18.7063 66.1509L21.1022 68.5469Z" fill="#14ACE3"/>
<path d="M46.5382 55.603L46.535 55.6062L45.0744 57.1437C44.8854 57.3343 44.5763 57.3359 44.3857 57.1469L44.3825 57.1437L27.7263 40.4875C27.5309 40.3017 27.5245 39.9942 27.7103 39.7988L27.7263 39.7828V39.7187L29.1869 38.2581C29.3759 38.0675 29.685 38.0659 29.8756 38.2549L29.8788 38.2581L46.535 54.9143C46.7256 55.1033 46.7272 55.4124 46.5382 55.603Z" fill="#14ACE3"/>
<path d="M60.6287 28.4053C60.6287 29.1132 61.2021 29.6866 61.91 29.6866C64.1378 29.5472 66.0644 31.2273 66.2278 33.4535C66.1349 35.1431 64.9498 36.5733 63.3066 36.9769V37.2203C63.305 37.2444 63.3034 37.2684 63.3017 37.2924C63.2297 37.9955 62.6019 38.5096 61.8972 38.4375C61.8523 38.4423 61.8075 38.4439 61.7626 38.4439C61.0548 38.4407 60.4846 37.8642 60.4878 37.1563V36.9641C58.8606 36.5333 57.7043 35.0967 57.6306 33.415C57.6306 33.3702 57.6306 33.3253 57.637 33.2805C57.7075 32.5758 58.3353 32.0633 59.04 32.1338C59.0896 32.129 59.1393 32.1258 59.1889 32.1258C59.8968 32.1306 60.467 32.7071 60.4622 33.415C60.4718 34.0252 60.9122 34.5441 61.5128 34.6546C62.2079 34.7812 62.8757 34.3215 63.0039 33.6248C63.1304 32.9281 62.6707 32.2619 61.9741 32.1338C59.7463 32.2731 57.8196 30.5931 57.6562 28.3669C57.7555 26.6596 58.9727 25.223 60.6416 24.8435V24.5231C60.6416 24.4783 60.6432 24.4335 60.648 24.3886C60.7184 23.6839 61.3462 23.1714 62.0509 23.2419C62.1006 23.2371 62.1502 23.2339 62.1999 23.2339C62.9078 23.2387 63.4779 23.8153 63.4731 24.5231V24.8306C65.1099 25.2519 66.2791 26.6917 66.3559 28.3797C66.3559 28.4245 66.3543 28.4694 66.3495 28.5142C66.2791 29.2189 65.6512 29.7314 64.9466 29.661C64.8969 29.6658 64.8473 29.669 64.7976 29.669C64.0897 29.6642 63.5196 29.0876 63.5244 28.3797C63.4571 27.6158 62.7909 27.0472 62.0253 27.0985L61.91 27.1241C61.2021 27.1241 60.6287 27.6974 60.6287 28.4053Z" fill="#14183E"/>
<path d="M69.5975 23.4084C67.5987 21.4016 64.8841 20.2725 62.0509 20.2693C56.1572 20.1989 51.3205 24.9187 51.25 30.8124C51.2308 33.636 52.3471 36.3474 54.3506 38.335C56.3494 40.3417 59.064 41.4708 61.8972 41.474C67.7909 41.5445 72.6277 36.8247 72.6981 30.9309C72.7173 28.1074 71.6011 25.3959 69.5975 23.4084ZM61.9997 38.9243C59.844 38.9195 57.7796 38.0563 56.2597 36.5284C54.7062 35.0373 53.8237 32.9809 53.8125 30.8268C53.8686 26.3777 57.4993 22.8046 61.9484 22.819C64.1041 22.8238 66.1686 23.6871 67.6884 25.215C69.2051 26.7236 70.0491 28.7784 70.0331 30.9165C69.9771 35.3256 66.4088 38.8827 61.9997 38.9243Z" fill="#14183E"/>
<path d="M67.6884 25.215C66.1686 23.6871 64.1041 22.8238 61.9484 22.819C57.4993 22.8046 53.8686 26.3777 53.8125 30.8268C53.8237 32.9809 54.7062 35.0373 56.2597 36.5284C57.7796 38.0563 59.844 38.9195 61.9997 38.9243C66.4088 38.8827 69.9771 35.3256 70.0331 30.9165C70.0491 28.7784 69.2051 26.7236 67.6884 25.215ZM66.3495 28.5142C66.2791 29.2189 65.6512 29.7314 64.9466 29.6609C64.8969 29.6657 64.8473 29.6689 64.7976 29.6689C64.0897 29.6641 63.5196 29.0875 63.5244 28.3796C63.4571 27.6157 62.7909 27.0471 62.0253 27.0984L61.91 27.124C61.2021 27.124 60.6287 27.6974 60.6287 28.4053C60.6287 29.1132 61.2021 29.6865 61.91 29.6865C64.1378 29.5472 66.0645 31.2272 66.2278 33.4534C66.1349 35.143 64.9498 36.5732 63.3066 36.9768V37.2203C63.305 37.2443 63.3034 37.2683 63.3018 37.2923C63.2297 37.9954 62.6019 38.5095 61.8972 38.4375C61.8523 38.4423 61.8075 38.4439 61.7627 38.4439C61.0548 38.4407 60.4846 37.8641 60.4878 37.1562V36.964C58.8606 36.5332 57.7043 35.0966 57.6306 33.415C57.6306 33.3701 57.6306 33.3253 57.637 33.2804C57.7075 32.5757 58.3353 32.0632 59.04 32.1337C59.0897 32.1289 59.1393 32.1257 59.1889 32.1257C59.8968 32.1305 60.467 32.7071 60.4622 33.415C60.4718 34.0251 60.9122 34.5441 61.5128 34.6546C62.2079 34.7811 62.8757 34.3214 63.0039 33.6248C63.1304 32.9281 62.6707 32.2618 61.9741 32.1337C59.7463 32.273 57.8196 30.593 57.6562 28.3668C57.7555 26.6596 58.9727 25.223 60.6416 24.8434V24.5231C60.6416 24.4782 60.6432 24.4334 60.648 24.3885C60.7184 23.6839 61.3463 23.1714 62.0509 23.2418C62.1006 23.237 62.1502 23.2338 62.1999 23.2338C62.9078 23.2386 63.4779 23.8152 63.4731 24.5231V24.8306C65.1099 25.2518 66.2791 26.6916 66.3559 28.3796C66.3559 28.4245 66.3543 28.4693 66.3495 28.5142Z" fill="#14ACE3"/>
<path d="M65.5215 46.559L65.459 46.4965C64.3187 45.3514 62.77 44.706 61.154 44.7028L61.1669 44.7284C59.5605 44.7252 58.0182 45.3562 56.8747 46.4837C54.5011 48.8236 54.4723 52.6433 56.8122 55.0184L56.8747 55.0809C58.015 56.226 59.5637 56.8714 61.1797 56.8746C62.7844 56.8682 64.3235 56.2292 65.459 55.0937C67.8326 52.7538 67.8614 48.9341 65.5215 46.559ZM63.6653 53.2871C62.9782 53.9502 62.0573 54.3137 61.1028 54.2993C60.1435 54.3137 59.2194 53.939 58.5403 53.2615C57.1742 51.9146 57.1581 49.7173 58.5051 48.3511L58.5403 48.3159C59.221 47.6432 60.1451 47.2733 61.1028 47.2909C62.0621 47.2765 62.9862 47.6512 63.6653 48.3287C64.3379 48.9805 64.7159 49.8774 64.7159 50.8143C64.7111 51.7464 64.3331 52.6369 63.6653 53.2871Z" fill="#14183E"/>
<path d="M64.7159 50.8143C64.7111 51.7464 64.3331 52.6369 63.6653 53.2871C62.9782 53.9502 62.0573 54.3137 61.1028 54.2993C60.1435 54.3137 59.2194 53.939 58.5403 53.2615C57.1742 51.9146 57.1581 49.7173 58.5051 48.3511L58.5403 48.3159C59.221 47.6432 60.1451 47.2733 61.1028 47.2909C62.0621 47.2765 62.9862 47.6512 63.6653 48.3287C64.3379 48.9805 64.7159 49.8774 64.7159 50.8143Z" fill="#14ACE3"/>
<path d="M48.4185 38.8603C46.8922 37.3244 44.4098 37.318 42.8739 38.8443C42.1419 39.5714 41.7271 40.558 41.7175 41.5894L41.7432 41.5509C41.7335 42.5904 42.1451 43.5881 42.8835 44.3184C43.609 45.0584 44.6019 45.4748 45.6382 45.4716C47.7762 45.4796 49.5235 43.7659 49.5588 41.6278C49.5684 40.5884 49.1568 39.5906 48.4185 38.8603ZM45.7294 42.885C45.7038 42.885 45.6766 42.8851 45.651 42.8835C45.2906 42.8835 44.9447 42.7409 44.69 42.4863C44.4386 42.2396 44.3008 41.9017 44.3057 41.5509C44.2832 40.8431 44.839 40.2521 45.5453 40.2297C45.5853 40.2281 45.6237 40.2297 45.6638 40.2313V40.2697C46.0241 40.2697 46.3701 40.4122 46.6247 40.6669C46.8762 40.9135 47.0139 41.2515 47.0091 41.6022C47.0107 42.3101 46.4373 42.885 45.7294 42.885Z" fill="#14183E"/>
<path d="M47.0091 41.6022C47.0107 42.3101 46.4373 42.8851 45.7294 42.8851C45.7038 42.8851 45.6766 42.8851 45.651 42.8835C45.2906 42.8835 44.9447 42.7409 44.69 42.4863C44.4386 42.2396 44.3008 41.9017 44.3056 41.551C44.2832 40.8431 44.839 40.2521 45.5453 40.2297C45.5853 40.2281 45.6237 40.2297 45.6638 40.2313V40.2697C46.0241 40.2697 46.3701 40.4122 46.6247 40.6669C46.8762 40.9135 47.0139 41.2515 47.0091 41.6022Z" fill="#14ACE3"/>
<path d="M43.5785 22.7374C43.5785 22.7374 43.5673 22.723 43.5625 22.7166C42.7201 21.6371 41.4869 20.9324 40.1288 20.7563C37.2988 20.4023 34.7171 22.4107 34.3631 25.2406C34.0092 28.0706 36.0176 30.6523 38.8475 31.0063C39.0701 31.0207 39.2911 31.0207 39.5138 31.0063C40.6621 31.0095 41.78 30.6315 42.6913 29.93C44.9222 28.1891 45.3194 24.9684 43.5785 22.7374ZM42.1147 26.2272C42.0298 26.9159 41.6695 27.5389 41.1153 27.9569C40.558 28.3845 39.8517 28.5735 39.155 28.4822C37.7601 28.2452 36.8215 26.9207 37.0586 25.5257C37.2956 24.1308 38.6201 23.1922 40.0151 23.4293C40.6285 23.535 41.1842 23.8601 41.5766 24.3438C41.9978 24.8755 42.1916 25.5529 42.1147 26.2272Z" fill="#14183E"/>
<path d="M42.1147 26.2271C42.0298 26.9158 41.6694 27.5388 41.1153 27.9568C40.5579 28.3844 39.8517 28.5734 39.155 28.4821C37.76 28.2451 36.8215 26.9206 37.0585 25.5256C37.2956 24.1307 38.6201 23.1922 40.015 23.4292C40.6284 23.5349 41.1842 23.86 41.5765 24.3437C41.9978 24.8754 42.1915 25.5529 42.1147 26.2271Z" fill="#14ACE3"/>
</svg>
