<svg width="82" height="82" viewBox="0 0 82 82" fill="none" xmlns="http://www.w3.org/2000/svg">
<path d="M25.9669 0H12.3002C9.97686 0 8.2002 1.77667 8.2002 4.1V34.1667C8.2002 36.49 9.97686 38.2667 12.3002 38.2667H25.9669C28.2902 38.2667 30.0669 36.49 30.0669 34.1667V4.1C30.0669 1.77667 28.2902 0 25.9669 0ZM27.3335 34.1667C27.3335 34.9867 26.7869 35.5333 25.9669 35.5333H12.3002C11.4802 35.5333 10.9335 34.9867 10.9335 34.1667V32.8H27.3335V34.1667ZM27.3335 30.0667H10.9335V8.2H27.3335V30.0667ZM27.3335 5.46667H10.9335V4.1C10.9335 3.28 11.4802 2.73333 12.3002 2.73333H25.9669C26.7869 2.73333 27.3335 3.28 27.3335 4.1V5.46667Z" fill="#14183E"/>
<path d="M28 32H11V36H28V32Z" fill="#14ACE3"/>
<path d="M15.0332 10.7969V27.4702L25.4199 19.1335L15.0332 10.7969ZM17.7665 16.5369L21.0465 19.1335L17.7665 21.7302V16.5369Z" fill="#14183E"/>
<path d="M38.2665 23.2333C38.2665 14.2133 45.6465 6.83333 54.6665 6.83333C58.4932 6.83333 62.3199 8.2 65.3265 10.66L62.3199 13.6667C56.9899 9.43 49.3365 10.25 45.0999 15.58C43.3232 17.7667 42.3665 20.5 42.3665 23.2333H45.0999C45.0999 17.9033 49.3365 13.6667 54.6665 13.6667C56.7165 13.6667 58.7665 14.35 60.4065 15.58L57.3999 18.5867C56.5799 18.04 55.6232 17.7667 54.6665 17.7667C51.6599 17.7667 49.1999 20.2267 49.1999 23.2333H51.9332C51.9332 21.73 53.1632 20.5 54.6665 20.5C54.9399 20.5 55.0765 20.5 55.3499 20.6367L53.7099 22.2767L55.6232 24.19L57.2632 22.55C57.2632 22.8233 57.3999 22.96 57.3999 23.2333C57.3999 24.7367 56.1699 25.9667 54.6665 25.9667V28.7C57.6732 28.7 60.1332 26.24 60.1332 23.2333C60.1332 22.2767 59.8599 21.32 59.3132 20.5L62.3199 17.4933C65.4632 21.73 64.6432 27.7433 60.4065 30.8867C58.7665 32.1167 56.7165 32.8 54.6665 32.8V35.5333C61.4999 35.5333 66.9665 30.0667 66.9665 23.2333C66.9665 20.5 66.0099 17.7667 64.2332 15.58L67.1032 12.71C72.9799 19.5433 72.1599 29.93 65.1899 35.8067C62.3199 38.2667 58.4932 39.6333 54.6665 39.6333V42.3667C65.1899 42.3667 73.7999 33.8933 73.7999 23.2333C73.7999 18.5867 72.1599 14.2133 69.1532 10.66L71.6132 8.2H77.8999V5.46667H72.4332V0H69.6999V6.28667L67.2399 8.74667C59.1765 1.91333 47.1499 2.73333 40.1799 10.66C37.1732 14.2133 35.5332 18.5867 35.5332 23.2333H38.2665Z" fill="#14183E"/>
<path d="M66.9662 50.5667H54.9395L28.9729 41H25.9662C23.6429 41 21.8662 42.7767 21.8662 45.1V72.4333C21.8662 74.7567 23.6429 76.5333 25.9662 76.5333H28.9729L54.9395 65.6H58.7662V77.9C58.7662 80.2233 60.5429 82 62.8662 82C65.1895 82 66.9662 80.2233 66.9662 77.9V65.6C69.2895 65.6 71.0662 63.8233 71.0662 61.5V54.6667C71.0662 52.3433 69.2895 50.5667 66.9662 50.5667ZM27.3329 73.8H25.9662C25.1462 73.8 24.5995 73.2533 24.5995 72.4333V45.1C24.5995 44.28 25.1462 43.7333 25.9662 43.7333H27.3329V73.8ZM53.2995 63.2767L30.0662 73.1167V44.28L53.2995 52.89V63.2767ZM64.2329 77.9C64.2329 78.72 63.6862 79.2667 62.8662 79.2667C62.0462 79.2667 61.4995 78.72 61.4995 77.9V65.6H64.2329V77.9ZM68.3329 61.5C68.3329 62.32 67.7862 62.8667 66.9662 62.8667H56.0329V53.3H66.9662C67.7862 53.3 68.3329 53.8467 68.3329 54.6667V61.5Z" fill="#14183E"/>
<path d="M13.667 56.0332H19.1337V58.7665H13.667V56.0332Z" fill="#14183E"/>
<path d="M14.0867 46.0876L16.0188 44.1538L20.0778 48.2128L18.144 50.1449L14.085 46.0859L14.0867 46.0876Z" fill="#14183E"/>
<path d="M14.0869 68.7128L18.1459 64.6538L20.078 66.5876L16.019 70.6466L14.0869 68.7145V68.7128Z" fill="#14183E"/>
<path d="M36.8999 25.9668L35.5332 26.1035V27.4701C35.5332 35.6701 42.2299 42.3668 50.4299 42.3668H51.9332V25.9668H36.8999ZM49.1999 39.6335C43.4599 39.0868 38.9499 34.4401 38.4032 28.7001H49.1999V39.6335Z" fill="#14183E"/>
<path d="M32.7998 4.1001H40.9998V6.83343H32.7998V4.1001Z" fill="#14183E"/>
<path d="M76.5331 28.7002V54.6669C76.5331 55.4869 75.9865 56.0335 75.1665 56.0335H73.7998V58.7669H75.1665C77.4898 58.7669 79.2665 56.9902 79.2665 54.6669V28.7002H76.5331Z" fill="#14183E"/>
<path d="M5.46673 54.6669V28.7002H2.7334V54.6669C2.7334 56.9902 4.51007 58.7669 6.8334 58.7669H10.9334V56.0335H6.8334C6.0134 56.0335 5.46673 55.4869 5.46673 54.6669Z" fill="#14183E"/>
<rect x="56" y="53" width="13" height="10" fill="#14ACE3"/>
</svg>
