<svg width="84" height="82" viewBox="0 0 84 82" fill="none" xmlns="http://www.w3.org/2000/svg">
<path d="M79.8525 7.45257H79.397L79.7374 7.11376C80.7539 6.09572 80.7539 4.44058 79.7374 3.42416L77.0756 0.762319C76.0576 -0.254106 74.4024 -0.254106 73.386 0.762319L66.6957 7.45257H4.14746C2.13568 7.45257 0.5 9.08988 0.5 11.1V61.5922C0.5 64.0498 2.50043 66.0502 4.95801 66.0502H33.7567V74.6501H27.8965C26.3321 74.6501 25.0596 75.9227 25.0596 77.4871V78.7029C25.0596 80.2656 26.3321 81.5398 27.8965 81.5398H56.1035C57.6679 81.5398 58.9404 80.2656 58.9404 78.7029V77.4871C58.9404 75.9227 57.6679 74.6501 56.1035 74.6501H50.2449V66.0502H63.2363C63.9075 66.0502 64.4521 65.5056 64.4521 64.8344C64.4521 64.1633 63.9075 63.6186 63.2363 63.6186H4.95801C3.84107 63.6186 2.93164 62.7092 2.93164 61.5922V57.9934H81.0684V61.5922C81.0684 62.7092 80.1589 63.6186 79.042 63.6186H68.9102C68.239 63.6186 67.6943 64.1617 67.6943 64.8344C67.6943 65.5072 68.239 66.0502 68.9102 66.0502H79.042C81.4996 66.0502 83.5 64.0498 83.5 61.5922V11.1C83.5 9.08988 81.8643 7.45257 79.8525 7.45257ZM56.1035 77.0818C56.3272 77.0818 56.5088 77.2633 56.5088 77.4871V78.7029C56.5088 78.925 56.3272 79.1082 56.1035 79.1082H27.8965C27.6728 79.1082 27.4912 78.925 27.4912 78.7029V77.4871C27.4912 77.2633 27.6728 77.0818 27.8965 77.0818H56.1035ZM36.1868 66.0502H47.8132V74.6501H36.1868V66.0502ZM75.1044 2.4823C75.1741 2.41259 75.2875 2.41259 75.3556 2.4823L78.0175 5.14251C78.0872 5.21222 78.0872 5.3257 78.0175 5.39378L75.4772 7.93404L72.5657 5.02093L75.1044 2.4823ZM70.8457 6.74091L73.7589 9.6524L72.9094 10.5019L69.9979 7.58875L70.8457 6.74091ZM68.2779 9.30873L71.191 12.2202L56.8038 26.6074L53.8907 23.6959L68.2779 9.30873ZM66.4785 20.4246C68.132 20.4246 69.4775 21.7701 69.4775 23.4236C69.4775 25.0771 68.132 26.4226 66.4785 26.4226C64.825 26.4226 63.4795 25.0771 63.4795 23.4236C63.4795 23.4041 63.4827 23.3847 63.4827 23.3652L66.4218 20.4262C66.4412 20.4262 66.4591 20.4246 66.4785 20.4246ZM54.6915 27.9351L51.0943 29.4054L52.563 25.8066L54.6915 27.9351ZM81.0684 55.5618H2.93164V11.1C2.93164 10.4305 3.47633 9.88421 4.14746 9.88421H64.2641L62.4096 11.7387H21.0879C20.4168 11.7387 19.8721 12.2834 19.8721 12.9546C19.8721 13.6257 20.4168 14.1704 21.0879 14.1704H59.9779L51.4023 22.746C51.1608 22.9908 50.9711 23.2761 50.8398 23.5954L48.1245 30.2451C47.8748 30.8547 48.0159 31.5518 48.4811 32.017C48.7956 32.3299 49.2106 32.4968 49.6354 32.4968C49.8445 32.4968 50.0536 32.4563 50.2546 32.3753L56.9043 29.6599C57.214 29.5319 57.4912 29.3487 57.7311 29.1169L61.4304 25.4175C62.2264 27.4277 64.1879 28.8543 66.4785 28.8543C69.4727 28.8543 71.9092 26.4177 71.9092 23.4236C71.9092 21.133 70.4842 19.1715 68.4741 18.3755L72.6792 14.1704H76.7822V51.2756H76.1386L71.7325 43.6451C71.3969 43.0631 70.6528 42.8637 70.0709 43.1993C69.4905 43.5349 69.2911 44.279 69.6267 44.8609L73.3309 51.2756H56.3467L54.5246 48.121L63.0175 33.4128L66.7898 39.9474C67.1253 40.5277 67.8694 40.7271 68.4498 40.3916C69.0317 40.056 69.2311 39.3119 68.8956 38.7316L64.8704 31.7593C64.483 31.0897 63.7907 30.6893 63.0175 30.6893C62.2442 30.6893 61.5504 31.0897 61.1629 31.7593L53.1207 45.6893L42.8024 27.8168C42.415 27.1472 41.7212 26.7468 40.9479 26.7468C40.1746 26.7468 39.4808 27.1472 39.0934 27.8168L36.3521 32.5649V19.533C36.3521 17.9686 35.0796 16.6961 33.5152 16.6961H12.6582C11.0938 16.6961 9.82129 17.9686 9.82129 19.533V46.1189C9.82129 47.2358 10.7307 48.1453 11.8477 48.1453H27.3583L25.5508 51.2756H7.21781V14.1704H15.4141C16.0852 14.1704 16.6299 13.6257 16.6299 12.9546C16.6299 12.2834 16.0852 11.7387 15.4141 11.7387H6.81254C5.69398 11.7387 4.78617 12.6482 4.78617 13.7651V51.6809C4.78617 52.7994 5.69398 53.7072 6.81254 53.7072H77.1875C78.306 53.7072 79.2138 52.7994 79.2138 51.6809V13.7651C79.2138 12.6482 78.306 11.7387 77.1875 11.7387H75.1108L76.9654 9.88421H79.8525C80.5237 9.88421 81.0684 10.4305 81.0684 11.1V55.5618ZM33.9221 26.2654V45.7136H12.2529V26.2654H33.9221ZM12.2529 23.8337V19.533C12.2529 19.3093 12.4345 19.1277 12.6582 19.1277H33.5168C33.7405 19.1277 33.9221 19.3093 33.9221 19.533V23.8337H12.2529ZM30.166 48.1453H34.3274C35.4443 48.1453 36.3537 47.2358 36.3537 46.1189V43.543C36.6569 43.6889 36.9957 43.7683 37.3507 43.7683C38.1807 43.7683 38.9232 43.3387 39.3382 42.6206L41.4083 39.0363C41.4699 38.9277 41.5655 38.905 41.6353 38.905C41.705 38.905 41.799 38.9277 41.8622 39.0363L43.138 41.2459C43.553 41.964 44.2955 42.3936 45.1255 42.3936C45.9555 42.3936 46.6995 41.964 47.1145 41.2459L47.4307 40.6963L53.5389 51.2756H28.3585L30.166 48.1453ZM36.3537 39.4724V37.4282L40.9479 29.4686L46.0268 38.2647L45.1255 39.8258L43.968 37.8205C43.4817 36.9759 42.6095 36.4734 41.6353 36.4734C40.661 36.4734 39.7888 36.9759 39.3009 37.8205L37.3507 41.2005L36.3537 39.4724Z" fill="#1D1D1D"/>
<path d="M26 81H58C59.1046 81 60 80.1046 60 79V77C60 75.8954 59.1046 75 58 75H26C24.8954 75 24 75.8954 24 77V79C24 80.1046 24.8954 81 26 81Z" fill="#14ACE3" stroke="black"/>
</svg>
