<svg width="82" height="82" viewBox="0 0 82 82" fill="none" xmlns="http://www.w3.org/2000/svg">
<path d="M25.9667 0H12.3C9.97668 0 8.20001 1.77667 8.20001 4.1V34.1667C8.20001 36.49 9.97668 38.2667 12.3 38.2667H25.9667C28.29 38.2667 30.0667 36.49 30.0667 34.1667V4.1C30.0667 1.77667 28.29 0 25.9667 0ZM27.3333 34.1667C27.3333 34.9867 26.7867 35.5333 25.9667 35.5333H12.3C11.48 35.5333 10.9333 34.9867 10.9333 34.1667V32.8H27.3333V34.1667ZM27.3333 30.0667H10.9333V8.2H27.3333V30.0667ZM27.3333 5.46667H10.9333V4.1C10.9333 3.28 11.48 2.73333 12.3 2.73333H25.9667C26.7867 2.73333 27.3333 3.28 27.3333 4.1V5.46667Z" fill="#14183E"/>
<path d="M28 32H11V36H28V32Z" fill="#14ACE3"/>
<path d="M15.0333 10.7966V27.47L25.42 19.1333L15.0333 10.7966ZM17.7667 16.5366L21.0467 19.1333L17.7667 21.73V16.5366Z" fill="#14183E"/>
<path d="M38.2667 23.2333C38.2667 14.2133 45.6467 6.83333 54.6667 6.83333C58.4933 6.83333 62.32 8.2 65.3267 10.66L62.32 13.6667C56.99 9.43 49.3367 10.25 45.1 15.58C43.3233 17.7667 42.3667 20.5 42.3667 23.2333H45.1C45.1 17.9033 49.3367 13.6667 54.6667 13.6667C56.7167 13.6667 58.7667 14.35 60.4067 15.58L57.4 18.5867C56.58 18.04 55.6233 17.7667 54.6667 17.7667C51.66 17.7667 49.2 20.2267 49.2 23.2333H51.9333C51.9333 21.73 53.1633 20.5 54.6667 20.5C54.94 20.5 55.0767 20.5 55.35 20.6367L53.71 22.2767L55.6233 24.19L57.2633 22.55C57.2633 22.8233 57.4 22.96 57.4 23.2333C57.4 24.7367 56.17 25.9667 54.6667 25.9667V28.7C57.6733 28.7 60.1333 26.24 60.1333 23.2333C60.1333 22.2767 59.86 21.32 59.3133 20.5L62.32 17.4933C65.4633 21.73 64.6433 27.7433 60.4067 30.8867C58.7667 32.1167 56.7167 32.8 54.6667 32.8V35.5333C61.5 35.5333 66.9667 30.0667 66.9667 23.2333C66.9667 20.5 66.01 17.7667 64.2333 15.58L67.1033 12.71C72.98 19.5433 72.16 29.93 65.19 35.8067C62.32 38.2667 58.4933 39.6333 54.6667 39.6333V42.3667C65.19 42.3667 73.8 33.8933 73.8 23.2333C73.8 18.5867 72.16 14.2133 69.1533 10.66L71.6133 8.2H77.9V5.46667H72.4333V0H69.7V6.28667L67.24 8.74667C59.1767 1.91333 47.15 2.73333 40.18 10.66C37.1733 14.2133 35.5333 18.5867 35.5333 23.2333H38.2667Z" fill="#14183E"/>
<path d="M66.9666 50.5667H54.94L28.9733 41H25.9666C23.6433 41 21.8666 42.7767 21.8666 45.1V72.4333C21.8666 74.7567 23.6433 76.5333 25.9666 76.5333H28.9733L54.94 65.6H58.7666V77.9C58.7666 80.2233 60.5433 82 62.8666 82C65.19 82 66.9666 80.2233 66.9666 77.9V65.6C69.29 65.6 71.0666 63.8233 71.0666 61.5V54.6667C71.0666 52.3433 69.29 50.5667 66.9666 50.5667ZM27.3333 73.8H25.9666C25.1466 73.8 24.6 73.2533 24.6 72.4333V45.1C24.6 44.28 25.1466 43.7333 25.9666 43.7333H27.3333V73.8ZM53.3 63.2767L30.0666 73.1167V44.28L53.3 52.89V63.2767ZM64.2333 77.9C64.2333 78.72 63.6866 79.2667 62.8666 79.2667C62.0466 79.2667 61.5 78.72 61.5 77.9V65.6H64.2333V77.9ZM68.3333 61.5C68.3333 62.32 67.7866 62.8667 66.9666 62.8667H56.0333V53.3H66.9666C67.7866 53.3 68.3333 53.8467 68.3333 54.6667V61.5Z" fill="#14183E"/>
<path d="M13.6667 56.0333H19.1334V58.7667H13.6667V56.0333Z" fill="#14183E"/>
<path d="M14.0869 46.0874L16.019 44.1536L20.078 48.2126L18.1442 50.1447L14.0852 46.0857L14.0869 46.0874Z" fill="#14183E"/>
<path d="M14.0869 68.7126L18.1459 64.6536L20.078 66.5874L16.019 70.6464L14.0869 68.7143V68.7126Z" fill="#14183E"/>
<path d="M36.9 25.9667L35.5333 26.1033V27.47C35.5333 35.67 42.23 42.3667 50.43 42.3667H51.9333V25.9667H36.9ZM49.2 39.6333C43.46 39.0867 38.95 34.44 38.4033 28.7H49.2V39.6333Z" fill="#14183E"/>
<path d="M32.8 4.09998H41V6.83331H32.8V4.09998Z" fill="#14183E"/>
<path d="M76.5333 28.7V54.6666C76.5333 55.4866 75.9867 56.0333 75.1667 56.0333H73.8V58.7666H75.1667C77.49 58.7666 79.2667 56.99 79.2667 54.6666V28.7H76.5333Z" fill="#14183E"/>
<path d="M5.46667 54.6666V28.7H2.73334V54.6666C2.73334 56.99 4.51 58.7666 6.83334 58.7666H10.9333V56.0333H6.83334C6.01334 56.0333 5.46667 55.4866 5.46667 54.6666Z" fill="#14183E"/>
<rect x="56" y="53" width="13" height="10" fill="#14ACE3"/>
</svg>
