<svg width="82" height="82" viewBox="0 0 82 82" fill="none" xmlns="http://www.w3.org/2000/svg">
<path d="M67.9062 35.875C67.2016 35.875 66.625 36.4516 66.625 37.1562V71.75C66.625 74.5816 64.3316 76.875 61.5 76.875H28.1875C25.3559 76.875 23.0625 74.5816 23.0625 71.75V57.6562C23.0625 56.9516 22.4859 56.375 21.7812 56.375C21.0766 56.375 20.5 56.9516 20.5 57.6562V71.75C20.5 75.9909 23.9466 79.4375 28.1875 79.4375H61.5C65.7409 79.4375 69.1875 75.9909 69.1875 71.75V37.1562C69.1875 36.4516 68.6109 35.875 67.9062 35.875Z" fill="white"/>
<path d="M21.7813 12.8125C22.4859 12.8125 23.0625 12.2359 23.0625 11.5312V10.25C23.0625 7.41844 25.3559 5.125 28.1875 5.125H35.0038L36.6053 9.10969C37.1947 10.5831 38.5913 11.5312 40.18 11.5312H49.5203C51.0963 11.5312 52.5056 10.5831 53.095 9.10969L54.6966 5.125H61.5128C64.3444 5.125 66.6378 7.41844 66.6378 10.25V16.6562C66.6378 17.3609 67.2144 17.9375 67.9191 17.9375C68.6238 17.9375 69.2003 17.3609 69.2003 16.6562V10.25C69.2003 6.00906 65.7538 2.5625 61.5128 2.5625H28.2003C23.9594 2.5625 20.5128 6.00906 20.5128 10.25V11.5312C20.5128 12.2359 21.0894 12.8125 21.7941 12.8125H21.7813ZM51.9163 5.125L50.6991 8.16156C50.5069 8.64844 50.0328 8.96875 49.5075 8.96875H40.1672C39.6419 8.96875 39.1678 8.64844 38.9756 8.16156L37.7584 5.125H51.9163Z" fill="white"/>
<path d="M21.7812 35.875C25.3175 35.875 28.1875 33.005 28.1875 29.4688C28.1875 25.9325 25.3175 23.0625 21.7812 23.0625C18.245 23.0625 15.375 25.9325 15.375 29.4688C15.375 33.005 18.245 35.875 21.7812 35.875ZM21.7812 25.625C23.8953 25.625 25.625 27.3547 25.625 29.4688C25.625 31.5828 23.8953 33.3125 21.7812 33.3125C19.6672 33.3125 17.9375 31.5828 17.9375 29.4688C17.9375 27.3547 19.6672 25.625 21.7812 25.625Z" fill="white"/>
<path d="M21.7941 15.375C11.1981 15.375 2.5625 23.9978 2.5625 34.5938C2.5625 39.9494 4.77906 44.8053 8.32812 48.2903C8.37937 48.3416 8.405 48.3672 8.46906 48.4312C11.9284 51.7625 16.605 53.8125 21.7812 53.8125C26.9575 53.8125 31.6341 51.7497 35.0934 48.4312C35.1447 48.3928 35.1959 48.3416 35.2472 48.2903C38.7962 44.8053 41.0128 39.9494 41.0128 34.5938C41.0128 23.9978 32.39 15.375 21.7941 15.375ZM21.7556 51.2372C17.5019 51.2372 13.6453 49.6228 10.6856 46.9834L11.1084 45.5613C11.9284 42.8322 14.3884 40.9872 17.2328 40.9872H26.3041C29.1484 40.9872 31.6084 42.8194 32.4284 45.5613L32.8512 46.9706C29.9044 49.61 26.0222 51.2372 21.7556 51.2372ZM34.9012 44.8309C33.7481 41.0128 30.3144 38.4375 26.3169 38.4375H17.2456C13.2609 38.4375 9.81438 41.0128 8.66125 44.8309C6.44469 41.9994 5.125 38.4631 5.125 34.5938C5.125 25.4072 12.5947 17.9375 21.7812 17.9375C30.9678 17.9375 38.4375 25.4072 38.4375 34.5938C38.4375 38.4503 37.105 41.9994 34.9012 44.8309Z" fill="white"/>
<path d="M56.375 56.375H33.3125C32.6078 56.375 32.0312 56.9516 32.0312 57.6562C32.0312 58.3609 32.6078 58.9375 33.3125 58.9375H56.375C57.0797 58.9375 57.6562 58.3609 57.6562 57.6562C57.6562 56.9516 57.0797 56.375 56.375 56.375Z" fill="white"/>
<path d="M33.3125 65.3438H44.8438C45.5484 65.3438 46.125 64.7672 46.125 64.0625C46.125 63.3578 45.5484 62.7812 44.8438 62.7812H33.3125C32.6078 62.7812 32.0312 63.3578 32.0312 64.0625C32.0312 64.7672 32.6078 65.3438 33.3125 65.3438Z" fill="white"/>
<path d="M33.3125 71.75H56.375C57.0797 71.75 57.6562 71.1734 57.6562 70.4688C57.6562 69.7641 57.0797 69.1875 56.375 69.1875H33.3125C32.6078 69.1875 32.0312 69.7641 32.0312 70.4688C32.0312 71.1734 32.6078 71.75 33.3125 71.75Z" fill="white"/>
<path d="M73.0312 20.5H55.0938C51.5575 20.5 48.6875 23.37 48.6875 26.9062C48.6875 30.4425 51.5575 33.3125 55.0938 33.3125H73.0312C76.5675 33.3125 79.4375 30.4425 79.4375 26.9062C79.4375 23.37 76.5675 20.5 73.0312 20.5ZM73.0312 30.75H55.0938C52.9797 30.75 51.25 29.0203 51.25 26.9062C51.25 24.7922 52.9797 23.0625 55.0938 23.0625H73.0312C75.1453 23.0625 76.875 24.7922 76.875 26.9062C76.875 29.0203 75.1453 30.75 73.0312 30.75Z" fill="white"/>
</svg>
