<svg width="82" height="82" viewBox="0 0 82 82" fill="none" xmlns="http://www.w3.org/2000/svg">
<path fill-rule="evenodd" clip-rule="evenodd" d="M75.1133 0H6.88672C3.20312 0 0 3.45992 0 7.61181V55.5316C0 59.6835 3.04297 62.9705 6.88672 62.9705H32.9794L33.1523 62.4515C33.3125 61.9325 32.9922 61.4135 32.6719 61.2405H6.88672C4.00391 61.2405 1.60156 58.6456 1.60156 55.5316V7.61181C1.60156 4.49789 4.00391 1.72996 6.88672 1.72996H75.1133C77.9961 1.72996 80.3984 4.49789 80.3984 7.61181V55.5316C80.3984 58.6456 77.9961 61.2405 75.1133 61.2405H49.3281C49.0078 61.4135 48.6875 61.9325 48.8477 62.4515L49.0206 62.9705H75.1133C78.957 62.9705 82 59.6835 82 55.5316V7.61181C82 3.45992 78.7969 0 75.1133 0Z" fill="#141313"/>
<path fill-rule="evenodd" clip-rule="evenodd" d="M81.1992 52.7638H0.800781C0.320312 52.7638 0 52.4178 0 51.8988C0 51.3798 0.320312 51.0338 0.800781 51.0338H81.1992C81.6797 51.0338 82 51.3798 82 51.8988C82 52.4178 81.6797 52.7638 81.1992 52.7638Z" fill="#141313"/>
<path fill-rule="evenodd" clip-rule="evenodd" d="M53.8125 75.4261C53.4922 75.4261 53.1719 75.2531 53.0117 74.9071L48.8477 62.4514C48.6875 61.9325 49.0078 61.4135 49.3281 61.2405C49.8086 61.0675 50.2891 61.4135 50.4492 61.7595L54.6133 74.2152C54.7734 74.7341 54.4531 75.2531 54.1328 75.4261H53.8125ZM28.1875 75.4261H27.8672C27.5469 75.2531 27.2266 74.7341 27.3867 74.2152L31.5508 61.7595C31.7109 61.4135 32.1914 61.0675 32.6719 61.2405C32.9922 61.4135 33.3125 61.9325 33.1523 62.4514L28.9883 74.9071C28.8281 75.2531 28.5078 75.4261 28.1875 75.4261ZM47.2461 75.4261C46.9258 75.4261 46.6055 75.2531 46.4453 74.7341L45.0039 69.3713H36.9961L35.5547 74.7341C35.3945 75.2531 34.9141 75.5991 34.4336 75.4261C34.1133 75.2531 33.793 74.7341 33.9531 74.3882L35.5547 68.3333C35.7148 67.9873 36.0352 67.6413 36.3555 67.6413H45.6445C45.9648 67.6413 46.2852 67.8143 46.4453 68.3333L48.0469 74.3882C48.0469 74.7341 47.8867 75.2531 47.4062 75.4261H47.2461Z" fill="#141313"/>
<path fill-rule="evenodd" clip-rule="evenodd" d="M59.7383 82H22.2617C21.7812 82 21.4609 81.654 21.4609 81.135V77.8481C21.4609 75.5991 23.2227 73.6962 25.3047 73.6962H56.6953C58.7773 73.6962 60.5391 75.5991 60.5391 77.8481V81.135C60.5391 81.654 60.2188 82 59.7383 82ZM23.0625 80.27H58.9375V77.8481C58.9375 76.2911 57.8164 75.4261 56.6953 75.4261H25.3047C24.1836 75.4261 23.0625 76.2911 23.0625 77.8481V80.27Z" fill="#141313"/>
<path fill-rule="evenodd" clip-rule="evenodd" d="M74.793 57.7806H69.9883C69.5078 57.7806 69.1875 57.4346 69.1875 56.9156C69.1875 56.3967 69.5078 56.0507 69.9883 56.0507H74.793C75.2734 56.0507 75.5938 56.3967 75.5938 56.9156C75.5938 57.4346 75.2734 57.7806 74.793 57.7806Z" fill="#141313"/>
<path fill-rule="evenodd" clip-rule="evenodd" d="M65.0234 62.9705C64.543 62.9705 64.2227 62.6245 64.2227 62.1055V51.8988C64.2227 51.3798 64.543 51.0338 65.0234 51.0338C65.5039 51.0338 65.8242 51.3798 65.8242 51.8988V62.1055C65.8242 62.6245 65.5039 62.9705 65.0234 62.9705Z" fill="#141313"/>
<path fill-rule="evenodd" clip-rule="evenodd" d="M16.9766 62.9705C16.4961 62.9705 16.1758 62.6245 16.1758 62.1055V51.8988C16.1758 51.3798 16.4961 51.0338 16.9766 51.0338C17.457 51.0338 17.7773 51.3798 17.7773 51.8988V62.1055C17.7773 62.6245 17.457 62.9705 16.9766 62.9705Z" fill="#141313"/>
<path fill-rule="evenodd" clip-rule="evenodd" d="M81.1992 10.2068H0.800781C0.320312 10.2068 0 9.86077 0 9.34179C0 8.8228 0.320312 8.47681 0.800781 8.47681H81.1992C81.6797 8.47681 82 8.8228 82 9.34179C82 9.86077 81.6797 10.2068 81.1992 10.2068Z" fill="#141313"/>
<path fill-rule="evenodd" clip-rule="evenodd" d="M16.9766 52.7637C16.4961 52.7637 16.1758 52.4177 16.1758 51.8987V9.34179C16.1758 8.8228 16.4961 8.47681 16.9766 8.47681C17.457 8.47681 17.7773 8.8228 17.7773 9.34179V51.8987C17.7773 52.4177 17.457 52.7637 16.9766 52.7637Z" fill="#141313"/>
<path fill-rule="evenodd" clip-rule="evenodd" d="M13.4531 16.0886H4.32422C3.84375 16.0886 3.52344 15.7426 3.52344 15.2236C3.52344 14.7046 3.84375 14.3586 4.32422 14.3586H13.4531C13.9336 14.3586 14.2539 14.7046 14.2539 15.2236C14.2539 15.7426 13.9336 16.0886 13.4531 16.0886Z" fill="#141313"/>
<path fill-rule="evenodd" clip-rule="evenodd" d="M13.4531 23.7004H4.32422C3.84375 23.7004 3.52344 23.3544 3.52344 22.8354C3.52344 22.3165 3.84375 21.9705 4.32422 21.9705H13.4531C13.9336 21.9705 14.2539 22.3165 14.2539 22.8354C14.2539 23.3544 13.9336 23.7004 13.4531 23.7004Z" fill="#141313"/>
<path fill-rule="evenodd" clip-rule="evenodd" d="M11.8516 31.4852H4.32422C3.84375 31.4852 3.52344 31.1392 3.52344 30.6202C3.52344 30.1012 3.84375 29.7552 4.32422 29.7552H11.8516C12.332 29.7552 12.6523 30.1012 12.6523 30.6202C12.6523 31.1392 12.332 31.4852 11.8516 31.4852Z" fill="#141313"/>
<path fill-rule="evenodd" clip-rule="evenodd" d="M11.8516 39.097H4.32422C3.84375 39.097 3.52344 38.751 3.52344 38.232C3.52344 37.7131 3.84375 37.3671 4.32422 37.3671H11.8516C12.332 37.3671 12.6523 37.7131 12.6523 38.232C12.6523 38.751 12.332 39.097 11.8516 39.097Z" fill="#141313"/>
<path fill-rule="evenodd" clip-rule="evenodd" d="M11.8516 46.7088H4.32422C3.84375 46.7088 3.52344 46.3628 3.52344 45.8439C3.52344 45.3249 3.84375 44.9789 4.32422 44.9789H11.8516C12.332 44.9789 12.6523 45.3249 12.6523 45.8439C12.6523 46.3628 12.332 46.7088 11.8516 46.7088Z" fill="#141313"/>
<path fill-rule="evenodd" clip-rule="evenodd" d="M56.5352 29.5823H51.8906C51.7305 29.5823 51.5703 29.5823 51.4102 29.4093L47.0859 25.4304H41.6406L39.0781 28.8903C38.7578 29.2363 38.2774 29.4093 37.957 29.0633C37.6367 28.7173 37.4766 28.1983 37.7969 27.8523L40.6797 24.0464C40.8399 23.8734 41.1602 23.7004 41.3203 23.7004H47.4063C47.5664 23.7004 47.7266 23.8734 47.8867 23.8734L52.2109 27.8523H56.5352C57.0156 27.8523 57.3359 28.1983 57.3359 28.7173C57.3359 29.2363 57.0156 29.5823 56.5352 29.5823Z" fill="#141313"/>
<path fill-rule="evenodd" clip-rule="evenodd" d="M43.4023 37.8861H36.0352C35.5547 37.8861 35.2344 37.5401 35.2344 37.0211C35.2344 36.5021 35.5547 36.1561 36.0352 36.1561H42.6016V30.7932C42.6016 30.6202 42.6016 30.4472 42.7617 30.2743L46.7656 24.0464C47.0859 23.7004 47.5664 23.5274 47.8867 23.8734C48.207 24.0464 48.3672 24.5654 48.0469 25.0844L44.2031 31.1392V37.0211C44.2031 37.5401 43.8828 37.8861 43.4023 37.8861Z" fill="#141313"/>
<path fill-rule="evenodd" clip-rule="evenodd" d="M49.168 43.595C48.6875 43.595 48.3672 43.249 48.3672 42.73V36.6752L42.9219 31.4853C42.6016 31.1393 42.4414 30.6203 42.7617 30.2743C43.082 29.9283 43.5625 29.7553 43.8828 30.1013L49.6484 35.6372C49.8086 35.8102 49.9688 36.1562 49.9688 36.3292V42.73C49.9688 43.249 49.6484 43.595 49.168 43.595Z" fill="#141313"/>
<path fill-rule="evenodd" clip-rule="evenodd" d="M50.2891 23.0084C48.207 23.0084 46.6055 21.2785 46.6055 19.0295C46.6055 16.9536 48.207 15.2236 50.2891 15.2236C52.2109 15.2236 53.8125 16.9536 53.8125 19.0295C53.8125 21.2785 52.2109 23.0084 50.2891 23.0084ZM50.2891 16.9536C49.168 16.9536 48.207 17.9916 48.207 19.0295C48.207 20.2405 49.168 21.2785 50.2891 21.2785C51.25 21.2785 52.2109 20.2405 52.2109 19.0295C52.2109 17.9916 51.25 16.9536 50.2891 16.9536Z" fill="#141313"/>
<path fill-rule="evenodd" clip-rule="evenodd" d="M51.8906 38.751C51.5703 38.751 51.4102 38.578 51.25 38.405C50.9297 37.8861 51.0899 37.3671 51.4102 37.1941C53.332 35.9831 54.4531 33.7342 54.4531 31.4852C54.4531 30.9662 54.7734 30.6202 55.2539 30.6202C55.7344 30.6202 56.0547 30.9662 56.0547 31.4852C56.0547 34.4261 54.6133 37.0211 52.2109 38.578C52.2109 38.751 52.0508 38.751 51.8906 38.751Z" fill="#141313"/>
<path fill-rule="evenodd" clip-rule="evenodd" d="M39.2383 34.9452C39.0781 34.9452 38.7578 34.9452 38.7578 34.7722C37.957 33.9072 37.3164 32.6962 36.8359 31.4853C36.6758 30.9663 36.9961 30.4473 37.3164 30.2743C37.7969 30.1013 38.2773 30.4473 38.4375 30.7933C38.7578 32.0042 39.2383 32.8692 39.8789 33.3882C40.1992 33.7342 40.1992 34.4262 39.8789 34.7722C39.7187 34.9452 39.3984 34.9452 39.2383 34.9452Z" fill="#141313"/>
<path fill-rule="evenodd" clip-rule="evenodd" d="M69.3477 46.3629H62.4609C61.9805 46.3629 61.6602 46.0169 61.6602 45.4979C61.6602 44.9789 61.9805 44.6329 62.4609 44.6329H69.3477C69.8281 44.6329 70.1484 44.9789 70.1484 45.4979C70.1484 46.0169 69.8281 46.3629 69.3477 46.3629ZM58.9375 46.3629H28.8281C28.3477 46.3629 28.0273 46.0169 28.0273 45.4979C28.0273 44.9789 28.3477 44.6329 28.8281 44.6329H58.9375C59.418 44.6329 59.7383 44.9789 59.7383 45.4979C59.7383 46.0169 59.418 46.3629 58.9375 46.3629Z" fill="#141313"/>
<path fill-rule="evenodd" clip-rule="evenodd" d="M60.6992 40.827C59.2578 40.827 58.1367 42.038 58.1367 43.595V47.4009C58.1367 48.9578 59.2578 50.1688 60.6992 50.1688C62.1406 50.1688 63.2617 48.9578 63.2617 47.4009V43.595C63.2617 42.038 62.1406 40.827 60.6992 40.827ZM61.6602 47.4009C61.6602 47.9199 61.1797 48.4388 60.6992 48.4388C60.2188 48.4388 59.7383 47.9199 59.7383 47.4009V43.595C59.7383 43.076 60.2188 42.557 60.6992 42.557C61.1797 42.557 61.6602 43.076 61.6602 43.595V47.4009Z" fill="#141313"/>
<path fill-rule="evenodd" clip-rule="evenodd" d="M61.6602 43.595V47.4009C61.6602 47.9199 61.1797 48.4389 60.6992 48.4389C60.2188 48.4389 59.7383 47.9199 59.7383 47.4009V43.595C59.7383 43.076 60.2188 42.557 60.6992 42.557C61.1797 42.557 61.6602 43.076 61.6602 43.595Z" fill="#14ACE3"/>
<path fill-rule="evenodd" clip-rule="evenodd" d="M73.3516 19.8946L64.7031 14.7047C64.543 14.5317 64.2227 14.5317 63.9023 14.7047C63.7422 14.8777 63.582 15.0507 63.582 15.3967V25.6034C63.582 25.9494 63.7422 26.1224 63.9023 26.2954C64.0625 26.4684 64.2227 26.4684 64.3828 26.4684C64.543 26.4684 64.7031 26.4684 64.7031 26.2954L73.3516 21.2785C73.6719 21.1055 73.832 20.9325 73.832 20.5866C73.832 20.2406 73.6719 19.8946 73.3516 19.8946ZM65.1836 24.2195V16.9536L71.4297 20.5866L65.1836 24.2195Z" fill="#141313"/>
<path fill-rule="evenodd" clip-rule="evenodd" d="M71.4297 20.5865L65.1836 24.2194V16.9536L71.4297 20.5865Z" fill="#14ACE3"/>
<path fill-rule="evenodd" clip-rule="evenodd" d="M10.4102 6.05491H7.84766C7.36719 6.05491 7.04688 5.70892 7.04688 5.18993C7.04688 4.67094 7.36719 4.32495 7.84766 4.32495H10.4102C10.8906 4.32495 11.2109 4.67094 11.2109 5.18993C11.2109 5.70892 10.8906 6.05491 10.4102 6.05491Z" fill="#141313"/>
<path fill-rule="evenodd" clip-rule="evenodd" d="M16.6562 6.05491H14.0938C13.6133 6.05491 13.293 5.70892 13.293 5.18993C13.293 4.67094 13.6133 4.32495 14.0938 4.32495H16.6562C17.1367 4.32495 17.457 4.67094 17.457 5.18993C17.457 5.70892 17.1367 6.05491 16.6562 6.05491Z" fill="#141313"/>
<path fill-rule="evenodd" clip-rule="evenodd" d="M22.9023 6.05491H20.3398C19.8594 6.05491 19.5391 5.70892 19.5391 5.18993C19.5391 4.67094 19.8594 4.32495 20.3398 4.32495H22.9023C23.3828 4.32495 23.7031 4.67094 23.7031 5.18993C23.7031 5.70892 23.3828 6.05491 22.9023 6.05491Z" fill="#141313"/>
</svg>
