<svg width="82" height="82" viewBox="0 0 82 82" fill="none" xmlns="http://www.w3.org/2000/svg">
<path d="M76.0855 38.7642H46.069C43.9197 38.7642 42.1676 40.5147 42.1676 42.6656V75.7635C42.1676 77.9128 43.9197 79.6649 46.069 79.6649H76.0855C78.2348 79.6649 79.9869 77.9128 79.9869 75.7635V42.6656C79.9997 40.5147 78.2476 38.7642 76.0855 38.7642ZM77.9369 75.7635C77.9369 76.7821 77.1057 77.6149 76.0855 77.6149H46.069C45.0504 77.6149 44.2176 76.7821 44.2176 75.7635V42.6656C44.2176 41.6454 45.0504 40.8142 46.069 40.8142H76.0855C77.1057 40.8142 77.9369 41.6454 77.9369 42.6656V75.7635Z" fill="#141313"/>
<path d="M73.9491 62.8917H48.2056C47.6354 62.8917 47.1758 63.3514 47.1758 63.9231V73.0552C47.1758 73.6254 47.6354 74.085 48.2056 74.085H73.9491C74.5209 74.085 74.9805 73.6254 74.9805 73.0552V63.9231C74.9805 63.3514 74.5209 62.8917 73.9491 62.8917ZM72.9305 72.0238H49.237V64.9417H72.9305V72.0238Z" fill="#141313"/>
<path d="M73.7733 49.0001H48.0298C47.4596 49.0001 47 49.4598 47 50.0315V59.1636C47 59.7338 47.4596 60.1934 48.0298 60.1934H73.7733C74.3451 60.1934 74.8047 59.7338 74.8047 59.1636V50.0315C74.8047 49.4598 74.3451 49.0001 73.7733 49.0001ZM72.7547 58.1322H49.0612V51.0501H72.7547V58.1322Z" fill="#141313"/>
<path d="M73.949 44.3169H70.8307C70.259 44.3169 69.7993 44.7765 69.7993 45.3483C69.7993 45.9201 70.259 46.3797 70.8307 46.3797H73.949C74.5207 46.3797 74.9804 45.9201 74.9804 45.3483C74.9804 44.7765 74.5207 44.3169 73.949 44.3169Z" fill="#141313"/>
<path d="M64.3203 46.3797H67.4386C68.0103 46.3797 68.47 45.9201 68.47 45.3483C68.47 44.7765 68.0103 44.3169 67.4386 44.3169H64.3203C63.7486 44.3169 63.2889 44.7765 63.2889 45.3483C63.2889 45.9201 63.7486 46.3797 64.3203 46.3797Z" fill="#141313"/>
<path d="M68.0232 6.3486V35.0982C68.0232 35.67 67.5635 36.1296 66.9918 36.1296C66.42 36.1296 65.9604 35.67 65.9604 35.0982V6.3486C65.9604 5.26754 65.0779 4.38508 63.9856 4.38508H6.03791C4.94564 4.38508 4.06318 5.26754 4.06318 6.3486V43.3351H18.2146C18.2146 43.3351 18.2162 43.3255 18.2162 43.3207H20.2662C20.2662 43.3303 20.2662 43.3383 20.2662 43.3479H24.3774C24.379 43.3383 24.379 43.3303 24.3806 43.3207H26.4402V43.3239H38.5048C39.0765 43.3239 39.5362 43.7835 39.5362 44.3553C39.5362 44.927 39.0765 45.3851 38.5048 45.3851H4.06318V48.5658C4.06318 49.6596 4.94564 50.5421 6.03791 50.5421H38.5144C39.0862 50.5421 39.5458 51.0018 39.5458 51.5735C39.5458 52.1453 39.0862 52.6049 38.5144 52.6049H27.8672V58.22H38.5144C39.0862 58.22 39.5458 58.6796 39.5458 59.2514C39.5458 59.8232 39.0862 60.2828 38.5144 60.2828H24.4879C23.109 60.2828 21.9911 61.4007 21.9911 62.7796V64.3332H38.5032C39.0749 64.3332 39.5346 64.7928 39.5346 65.3646C39.5346 65.9363 39.0749 66.396 38.5032 66.396H20.9597C20.3879 66.396 19.9283 65.9347 19.9283 65.3646V62.7796C19.9283 60.27 21.9654 58.2328 24.4751 58.2328H25.8044V52.6161H6.03791C3.81494 52.6161 2.01318 50.816 2.01318 48.5914V6.3486C2.01318 4.13684 3.81494 2.33508 6.03791 2.33508H63.9969C66.2214 2.33508 68.0232 4.13684 68.0232 6.3486Z" fill="#141313"/>
<path d="M8.65487 12.3145H20.4632C20.9324 12.3145 21.3136 11.9333 21.3136 11.464V6.71859C21.3136 6.24934 20.9341 5.86816 20.4632 5.86816H8.65487C8.18562 5.86816 7.80444 6.24934 7.80444 6.71859V11.464C7.80444 11.9349 8.18562 12.3145 8.65487 12.3145Z" fill="#14ACE3"/>
<path d="M8.65487 27.6206H20.4632C20.9324 27.6206 21.3136 27.2394 21.3136 26.7702V15.138C21.3136 14.6688 20.9341 14.2876 20.4632 14.2876H8.65487C8.18562 14.2876 7.80444 14.6688 7.80444 15.138V26.7702C7.80444 27.241 8.18562 27.6206 8.65487 27.6206Z" fill="#14ACE3"/>
<path d="M28.4245 12.3145H40.2328C40.7021 12.3145 41.0833 11.9333 41.0833 11.464V6.71859C41.0833 6.24934 40.7037 5.86816 40.2328 5.86816H28.4245C27.9553 5.86816 27.5741 6.24934 27.5741 6.71859V11.464C27.5741 11.9349 27.9553 12.3145 28.4245 12.3145Z" fill="#14ACE3"/>
<path d="M28.4245 27.6206H40.2328C40.7021 27.6206 41.0833 27.2394 41.0833 26.7702V15.138C41.0833 14.6688 40.7037 14.2876 40.2328 14.2876H28.4245C27.9553 14.2876 27.5741 14.6688 27.5741 15.138V26.7702C27.5741 27.241 27.9553 27.6206 28.4245 27.6206Z" fill="#14ACE3"/>
<path d="M48.1975 12.3145H60.0058C60.4751 12.3145 60.8562 11.9333 60.8562 11.464V6.71859C60.8562 6.24934 60.4767 5.86816 60.0058 5.86816H48.1975C47.7282 5.86816 47.347 6.24934 47.347 6.71859V11.464C47.347 11.9349 47.7266 12.3145 48.1975 12.3145Z" fill="#14ACE3"/>
<path d="M48.1975 27.6206H60.0058C60.4751 27.6206 60.8562 27.2394 60.8562 26.7702V15.138C60.8562 14.6688 60.4767 14.2876 60.0058 14.2876H48.1975C47.7282 14.2876 47.347 14.6688 47.347 15.138V26.7702C47.347 27.241 47.7266 27.6206 48.1975 27.6206Z" fill="#14ACE3"/>
<path d="M7.80444 30.8269C7.80444 30.3576 8.18401 29.9764 8.65487 29.9764H14.5582C15.0275 29.9764 15.4087 30.3576 15.4087 30.8269C15.4087 31.2961 15.0291 31.6773 14.5582 31.6773H8.65487C8.18562 31.6773 7.80444 31.2961 7.80444 30.8269Z" fill="#141313"/>
<path d="M7.80444 34.1181C7.80444 33.6489 8.18401 33.2677 8.65487 33.2677H20.4632C20.9325 33.2677 21.3136 33.6489 21.3136 34.1181C21.3136 34.5874 20.9341 34.9686 20.4632 34.9686H8.65487C8.18562 34.967 7.80444 34.5874 7.80444 34.1181Z" fill="#141313"/>
<path d="M7.80444 37.4093C7.80444 36.94 8.18401 36.5588 8.65487 36.5588H20.4632C20.9325 36.5588 21.3136 36.94 21.3136 37.4093C21.3136 37.8785 20.9341 38.2597 20.4632 38.2597H8.65487C8.18562 38.2581 7.80444 37.8785 7.80444 37.4093Z" fill="#141313"/>
<path d="M27.5789 30.8269C27.5789 30.3576 27.9584 29.9764 28.4293 29.9764H34.3326C34.8019 29.9764 35.1831 30.3576 35.1831 30.8269C35.1831 31.2961 34.8035 31.6773 34.3326 31.6773H28.4293C27.96 31.6773 27.5789 31.2961 27.5789 30.8269Z" fill="#141313"/>
<path d="M41.088 34.1181C41.088 34.5874 40.7085 34.9686 40.2376 34.9686H28.4293C27.96 34.9686 27.5789 34.5874 27.5789 34.1181C27.5789 33.6489 27.9584 33.2677 28.4293 33.2677H40.2376C40.7085 33.2677 41.088 33.6489 41.088 34.1181Z" fill="#141313"/>
<path d="M41.088 37.4093C41.088 37.8785 40.7085 38.2597 40.2376 38.2597H28.4293C27.96 38.2597 27.5789 37.8785 27.5789 37.4093C27.5789 36.94 27.9584 36.5588 28.4293 36.5588H40.2376C40.7085 36.5588 41.088 36.94 41.088 37.4093Z" fill="#141313"/>
<path d="M47.347 30.8269C47.347 30.3576 47.7266 29.9764 48.1975 29.9764H54.1008C54.5701 29.9764 54.9513 30.3576 54.9513 30.8269C54.9513 31.2961 54.5717 31.6773 54.1008 31.6773H48.1975C47.7266 31.6773 47.347 31.2961 47.347 30.8269Z" fill="#141313"/>
<path d="M47.347 34.1181C47.347 33.6489 47.7266 33.2677 48.1975 33.2677H60.0058C60.4751 33.2677 60.8562 33.6489 60.8562 34.1181C60.8562 34.5874 60.4767 34.9686 60.0058 34.9686H48.1975C47.7266 34.967 47.347 34.5874 47.347 34.1181Z" fill="#141313"/>
<path d="M47.347 37.4093C47.347 36.94 47.7266 36.5588 48.1975 36.5588H60.0058C60.4751 36.5588 60.8562 36.94 60.8562 37.4093C60.8562 37.8785 60.4767 38.2597 60.0058 38.2597H48.1975C47.7266 38.2581 47.347 37.8785 47.347 37.4093Z" fill="#141313"/>
</svg>
