<svg width="82" height="82" viewBox="0 0 82 82" fill="none" xmlns="http://www.w3.org/2000/svg">
<path d="M76.0854 38.7642H46.0689C43.9196 38.7642 42.1675 40.5147 42.1675 42.6656V75.7635C42.1675 77.9128 43.9196 79.6649 46.0689 79.6649H76.0854C78.2347 79.6649 79.9868 77.9128 79.9868 75.7635V42.6656C79.9996 40.5147 78.2475 38.7642 76.0854 38.7642ZM77.9368 75.7635C77.9368 76.7821 77.1056 77.6149 76.0854 77.6149H46.0689C45.0503 77.6149 44.2175 76.7821 44.2175 75.7635V42.6656C44.2175 41.6454 45.0503 40.8142 46.0689 40.8142H76.0854C77.1056 40.8142 77.9368 41.6454 77.9368 42.6656V75.7635Z" fill="white"/>
<path d="M73.9491 62.8917H48.2056C47.6354 62.8917 47.1758 63.3514 47.1758 63.9231V73.0552C47.1758 73.6254 47.6354 74.085 48.2056 74.085H73.9491C74.5209 74.085 74.9805 73.6254 74.9805 73.0552V63.9231C74.9805 63.3514 74.5209 62.8917 73.9491 62.8917ZM72.9305 72.0238H49.237V64.9417H72.9305V72.0238Z" fill="white"/>
<path d="M73.7733 49.0001H48.0298C47.4596 49.0001 47 49.4598 47 50.0315V59.1636C47 59.7338 47.4596 60.1934 48.0298 60.1934H73.7733C74.3451 60.1934 74.8047 59.7338 74.8047 59.1636V50.0315C74.8047 49.4598 74.3451 49.0001 73.7733 49.0001ZM72.7547 58.1322H49.0612V51.0501H72.7547V58.1322Z" fill="white"/>
<path d="M73.949 44.3169H70.8307C70.259 44.3169 69.7993 44.7765 69.7993 45.3483C69.7993 45.9201 70.259 46.3797 70.8307 46.3797H73.949C74.5207 46.3797 74.9804 45.9201 74.9804 45.3483C74.9804 44.7765 74.5207 44.3169 73.949 44.3169Z" fill="white"/>
<path d="M64.3205 46.3797H67.4387C68.0105 46.3797 68.4701 45.9201 68.4701 45.3483C68.4701 44.7765 68.0105 44.3169 67.4387 44.3169H64.3205C63.7487 44.3169 63.2891 44.7765 63.2891 45.3483C63.2891 45.9201 63.7487 46.3797 64.3205 46.3797Z" fill="white"/>
<path d="M68.0232 6.3486V35.0982C68.0232 35.67 67.5635 36.1297 66.9918 36.1297C66.42 36.1297 65.9604 35.67 65.9604 35.0982V6.3486C65.9604 5.26754 65.0779 4.38508 63.9856 4.38508H6.03791C4.94564 4.38508 4.06318 5.26754 4.06318 6.3486V43.3351H18.2146C18.2146 43.3351 18.2162 43.3255 18.2162 43.3207H20.2662C20.2662 43.3303 20.2662 43.3383 20.2662 43.3479H24.3774C24.379 43.3383 24.379 43.3303 24.3806 43.3207H26.4402V43.3239H38.5048C39.0765 43.3239 39.5362 43.7835 39.5362 44.3553C39.5362 44.927 39.0765 45.3851 38.5048 45.3851H4.06318V48.5658C4.06318 49.6596 4.94564 50.5421 6.03791 50.5421H38.5144C39.0862 50.5421 39.5458 51.0018 39.5458 51.5735C39.5458 52.1453 39.0862 52.6049 38.5144 52.6049H27.8672V58.22H38.5144C39.0862 58.22 39.5458 58.6796 39.5458 59.2514C39.5458 59.8232 39.0862 60.2828 38.5144 60.2828H24.4879C23.109 60.2828 21.9911 61.4007 21.9911 62.7796V64.3332H38.5032C39.0749 64.3332 39.5346 64.7928 39.5346 65.3646C39.5346 65.9363 39.0749 66.396 38.5032 66.396H20.9597C20.3879 66.396 19.9283 65.9347 19.9283 65.3646V62.7796C19.9283 60.27 21.9654 58.2328 24.4751 58.2328H25.8044V52.6161H6.03791C3.81494 52.6161 2.01318 50.816 2.01318 48.5914V6.3486C2.01318 4.13684 3.81494 2.33508 6.03791 2.33508H63.9969C66.2214 2.33508 68.0232 4.13684 68.0232 6.3486Z" fill="white"/>
<path d="M8.65487 12.3145H20.4632C20.9325 12.3145 21.3136 11.9333 21.3136 11.464V6.71859C21.3136 6.24934 20.9341 5.86816 20.4632 5.86816H8.65487C8.18562 5.86816 7.80444 6.24934 7.80444 6.71859V11.464C7.80444 11.9349 8.18562 12.3145 8.65487 12.3145Z" fill="white"/>
<path d="M8.65487 27.6206H20.4632C20.9325 27.6206 21.3136 27.2394 21.3136 26.7702V15.138C21.3136 14.6688 20.9341 14.2876 20.4632 14.2876H8.65487C8.18562 14.2876 7.80444 14.6688 7.80444 15.138V26.7702C7.80444 27.241 8.18562 27.6206 8.65487 27.6206Z" fill="white"/>
<path d="M28.4246 12.3145H40.233C40.7022 12.3145 41.0834 11.9333 41.0834 11.464V6.71859C41.0834 6.24934 40.7038 5.86816 40.233 5.86816H28.4246C27.9554 5.86816 27.5742 6.24934 27.5742 6.71859V11.464C27.5742 11.9349 27.9554 12.3145 28.4246 12.3145Z" fill="white"/>
<path d="M28.4246 27.6206H40.233C40.7022 27.6206 41.0834 27.2394 41.0834 26.7702V15.138C41.0834 14.6688 40.7038 14.2876 40.233 14.2876H28.4246C27.9554 14.2876 27.5742 14.6688 27.5742 15.138V26.7702C27.5742 27.241 27.9554 27.6206 28.4246 27.6206Z" fill="white"/>
<path d="M48.1974 12.3145H60.0057C60.4749 12.3145 60.8561 11.9333 60.8561 11.464V6.71859C60.8561 6.24934 60.4765 5.86816 60.0057 5.86816H48.1974C47.7281 5.86816 47.3469 6.24934 47.3469 6.71859V11.464C47.3469 11.9349 47.7265 12.3145 48.1974 12.3145Z" fill="white"/>
<path d="M48.1974 27.6206H60.0057C60.4749 27.6206 60.8561 27.2394 60.8561 26.7702V15.138C60.8561 14.6688 60.4765 14.2876 60.0057 14.2876H48.1974C47.7281 14.2876 47.3469 14.6688 47.3469 15.138V26.7702C47.3469 27.241 47.7265 27.6206 48.1974 27.6206Z" fill="white"/>
<path d="M7.80444 30.8269C7.80444 30.3576 8.18401 29.9764 8.65487 29.9764H14.5582C15.0275 29.9764 15.4087 30.3576 15.4087 30.8269C15.4087 31.2961 15.0291 31.6773 14.5582 31.6773H8.65487C8.18562 31.6773 7.80444 31.2961 7.80444 30.8269Z" fill="white"/>
<path d="M7.80444 34.1181C7.80444 33.6489 8.18401 33.2677 8.65487 33.2677H20.4632C20.9325 33.2677 21.3136 33.6489 21.3136 34.1181C21.3136 34.5874 20.9341 34.9686 20.4632 34.9686H8.65487C8.18562 34.967 7.80444 34.5874 7.80444 34.1181Z" fill="white"/>
<path d="M7.80444 37.4093C7.80444 36.94 8.18401 36.5588 8.65487 36.5588H20.4632C20.9325 36.5588 21.3136 36.94 21.3136 37.4093C21.3136 37.8785 20.9341 38.2597 20.4632 38.2597H8.65487C8.18562 38.2581 7.80444 37.8785 7.80444 37.4093Z" fill="white"/>
<path d="M27.5789 30.8269C27.5789 30.3576 27.9584 29.9764 28.4293 29.9764H34.3326C34.8019 29.9764 35.1831 30.3576 35.1831 30.8269C35.1831 31.2961 34.8035 31.6773 34.3326 31.6773H28.4293C27.96 31.6773 27.5789 31.2961 27.5789 30.8269Z" fill="white"/>
<path d="M41.088 34.1181C41.088 34.5874 40.7085 34.9686 40.2376 34.9686H28.4293C27.96 34.9686 27.5789 34.5874 27.5789 34.1181C27.5789 33.6489 27.9584 33.2677 28.4293 33.2677H40.2376C40.7085 33.2677 41.088 33.6489 41.088 34.1181Z" fill="white"/>
<path d="M41.088 37.4093C41.088 37.8785 40.7085 38.2597 40.2376 38.2597H28.4293C27.96 38.2597 27.5789 37.8785 27.5789 37.4093C27.5789 36.94 27.9584 36.5588 28.4293 36.5588H40.2376C40.7085 36.5588 41.088 36.94 41.088 37.4093Z" fill="white"/>
<path d="M47.3469 30.8269C47.3469 30.3576 47.7265 29.9764 48.1974 29.9764H54.1007C54.57 29.9764 54.9511 30.3576 54.9511 30.8269C54.9511 31.2961 54.5716 31.6773 54.1007 31.6773H48.1974C47.7265 31.6773 47.3469 31.2961 47.3469 30.8269Z" fill="white"/>
<path d="M47.3469 34.1181C47.3469 33.6489 47.7265 33.2677 48.1974 33.2677H60.0057C60.4749 33.2677 60.8561 33.6489 60.8561 34.1181C60.8561 34.5874 60.4765 34.9686 60.0057 34.9686H48.1974C47.7265 34.967 47.3469 34.5874 47.3469 34.1181Z" fill="white"/>
<path d="M47.3469 37.4093C47.3469 36.94 47.7265 36.5588 48.1974 36.5588H60.0057C60.4749 36.5588 60.8561 36.94 60.8561 37.4093C60.8561 37.8785 60.4765 38.2597 60.0057 38.2597H48.1974C47.7265 38.2581 47.3469 37.8785 47.3469 37.4093Z" fill="white"/>
</svg>
