<svg width="23" height="21" viewBox="0 0 23 21" fill="none" xmlns="http://www.w3.org/2000/svg">
<path d="M21.8337 7.16211H1.83374M13.8337 15.6621L16.3337 13.1621L13.8337 10.6621M9.83374 10.6621L7.33374 13.1621L9.83374 15.6621M1.83374 5.96211L1.83374 14.3621C1.83374 16.0423 1.83374 16.8823 2.16072 17.5241C2.44834 18.0886 2.90728 18.5475 3.47177 18.8351C4.1135 19.1621 4.95358 19.1621 6.63374 19.1621H17.0337C18.7139 19.1621 19.554 19.1621 20.1957 18.8351C20.7602 18.5475 21.2191 18.0886 21.5068 17.5241C21.8337 16.8823 21.8337 16.0423 21.8337 14.3621V5.96211C21.8337 4.28195 21.8337 3.44187 21.5068 2.80014C21.2191 2.23565 20.7602 1.77671 20.1957 1.48909C19.554 1.16211 18.7139 1.16211 17.0337 1.16211L6.63374 1.16211C4.95358 1.16211 4.1135 1.16211 3.47177 1.48909C2.90728 1.77671 2.44834 2.23565 2.16072 2.80014C1.83374 3.44187 1.83374 4.28195 1.83374 5.96211Z" stroke="#1D1D1D" stroke-width="2" stroke-linecap="round" stroke-linejoin="round"/>
</svg>
