<svg width="24" height="25" viewBox="0 0 24 25" fill="none" xmlns="http://www.w3.org/2000/svg">
<path d="M18 13.1621L16.7004 6.66393C16.6278 6.30094 16.5915 6.11944 16.5032 5.97163C16.4252 5.84097 16.3183 5.72983 16.1908 5.64671C16.0466 5.55268 15.8667 5.50925 15.5069 5.42239L2 2.16211M2 2.16211L5.26028 15.669C5.34714 16.0288 5.39057 16.2087 5.4846 16.353C5.56773 16.4804 5.67886 16.5873 5.80953 16.6653C5.95733 16.7536 6.13883 16.7899 6.50182 16.8625L13 18.1621M2 2.16211L9.586 9.74811M16.1314 21.0307L20.8686 16.2935C21.2646 15.8975 21.4627 15.6995 21.5368 15.4711C21.6021 15.2703 21.6021 15.0539 21.5368 14.8531C21.4627 14.6248 21.2646 14.4268 20.8686 14.0307L20.1314 13.2935C19.7354 12.8975 19.5373 12.6995 19.309 12.6253C19.1082 12.56 18.8918 12.56 18.691 12.6253C18.4627 12.6995 18.2646 12.8975 17.8686 13.2935L13.1314 18.0307C12.7354 18.4268 12.5373 18.6248 12.4632 18.8531C12.3979 19.0539 12.3979 19.2703 12.4632 19.4711C12.5373 19.6995 12.7354 19.8975 13.1314 20.2935L13.8686 21.0307C14.2646 21.4268 14.4627 21.6248 14.691 21.699C14.8918 21.7642 15.1082 21.7642 15.309 21.699C15.5373 21.6248 15.7354 21.4268 16.1314 21.0307ZM13 11.1621C13 12.2667 12.1046 13.1621 11 13.1621C9.89543 13.1621 9 12.2667 9 11.1621C9 10.0575 9.89543 9.16211 11 9.16211C12.1046 9.16211 13 10.0575 13 11.1621Z" stroke="#1D1D1D" stroke-width="2" stroke-linecap="round" stroke-linejoin="round"/>
</svg>
